<svg xmlns="http://www.w3.org/2000/svg" viewBox="0 0 89.12 129.67"><defs><style>.cls-1{fill:#e6e7e8;}.cls-2{fill:#fcfdfd;}.cls-3{fill:#ffc062;}.cls-4{fill:#414042;}</style></defs><title>Asset 2</title><g id="Layer_2" data-name="Layer 2"><g id="Layer_1-2" data-name="Layer 1"><path class="cls-1" d="M87.85,124.28c0,3-19.38,5.39-43.29,5.39s-43.29-2.41-43.29-5.39,19.38-5.39,43.29-5.39S87.85,121.3,87.85,124.28Z"/><path class="cls-2" d="M44.56,9.62A34.92,34.92,0,0,0,15.13,63.37l.13.21c.44.67.9,1.35,1.4,2l.11.15L32.28,88,44.5,106.68,56.73,88,72.29,65.8c.57-.75,1.14-1.55,1.67-2.39l.12-.18A34.92,34.92,0,0,0,44.56,9.62ZM42,67.91a2.41,2.41,0,0,1-2.35,1.9,2.22,2.22,0,0,1-.51-.06,25.36,25.36,0,0,1-12.61-6.93,2.4,2.4,0,1,1,3.41-3.39,20.61,20.61,0,0,0,10.22,5.62A2.41,2.41,0,0,1,42,67.91ZM67.4,40.76a2.57,2.57,0,0,1-.67.09,2.41,2.41,0,0,1-2.31-1.74A20.82,20.82,0,0,0,50.3,25a2.41,2.41,0,0,1,1.34-4.62A25.69,25.69,0,0,1,69.05,37.78,2.41,2.41,0,0,1,67.4,40.76Z"/><path class="cls-3" d="M67.64,45.11a23,23,0,1,1-.9-6.41A23.41,23.41,0,0,1,67.64,45.11Z"/><path class="cls-4" d="M44.56,0A44.55,44.55,0,0,0,7,68.56l.15.24c.6.91,1.17,1.73,1.76,2.51l15.37,22,20.2,30.93L64.65,93.42,80,71.59q1.08-1.41,2.1-3l.13-.21h0A44.55,44.55,0,0,0,44.56,0ZM74.08,63.23l-.12.18c-.53.84-1.1,1.64-1.67,2.39L56.73,88,44.5,106.68,32.28,88,16.77,65.74l-.11-.15c-.5-.66-1-1.34-1.4-2l-.13-.21a34.94,34.94,0,1,1,59-.14Z"/><path class="cls-4" d="M40.12,65.05A20.61,20.61,0,0,1,29.9,59.43a2.4,2.4,0,1,0-3.41,3.39A25.36,25.36,0,0,0,39.1,69.75a2.22,2.22,0,0,0,.51.06,2.41,2.41,0,0,0,.51-4.76Z"/><path class="cls-4" d="M51.64,20.37A2.41,2.41,0,0,0,50.3,25,20.82,20.82,0,0,1,64.42,39.11a2.41,2.41,0,0,0,2.31,1.74,2.57,2.57,0,0,0,.67-.09,2.41,2.41,0,0,0,1.65-3A25.69,25.69,0,0,0,51.64,20.37Z"/></g></g></svg>